# xmcd
#
# Track frame offsets:
#	150
#	23100
#	45525
#	68400
#	89925
#	111600
#	133275
#	155925
#	177600
#	199425
#	220800
#	243225
#
# Disc length: 3534 seconds
#
# Revision: 1
# Processed by: cddbd v1.5.1PL0 Copyright (c) Steve Scherf et al.
# Submitted via: CDex 1.50Beta5
#
DISCID=bf0dcc0c
DTITLE=NHK交響楽団 - NHK名曲アルバム大全集Disc2
DYEAR=1900
DGENRE=
TTITLE0=エグモント序曲(ベートーベン)
TTITLE1=思い出 (ドルドラ)
TTITLE2=夢 (ドビュッシー)
TTITLE3=ホラ・スタカート(ヴィニク)
TTITLE4=波を越えて(ローサス)
TTITLE5=第40番(モーツアルト)
TTITLE6=スラブ舞曲第10番(ドボルザーク)
TTITLE7=弦楽四重奏曲「アメリカ」(ドボルザーク)
TTITLE8=大峡谷から(グロフェ)
TTITLE9=協奏曲K467第2楽章(モツアルト)
TTITLE10=浜辺の歌[林 古渓]
TTITLE11=ドリーゴのセレナード(ドリーゴ)
EXTD=
EXTT0=
EXTT1=
EXTT2=
EXTT3=
EXTT4=
EXTT5=
EXTT6=
EXTT7=
EXTT8=
EXTT9=
EXTT10=
EXTT11=
PLAYORDER=
